<?xml version="1.0" encoding="utf-8"?>
<!-- Generator: Adobe Illustrator 15.0.0, SVG Export Plug-In . SVG Version: 6.00 Build 0)  -->
<!DOCTYPE svg PUBLIC "-//W3C//DTD SVG 1.1//EN" "http://www.w3.org/Graphics/SVG/1.1/DTD/svg11.dtd">
<svg version="1.1" id="Layer_2" xmlns="http://www.w3.org/2000/svg" xmlns:xlink="http://www.w3.org/1999/xlink" x="0px" y="0px"
	 width="72.446px" height="209.184px" viewBox="0 0 72.446 209.184" enable-background="new 0 0 72.446 209.184"
	 xml:space="preserve">
<path fill="#FCFCFC" d="M26.214,199.507c0,0,12.333,1,12-10.5c0,0,1.333-12.832-11.167-13.166c-12.5-0.334-12.833,12.667-12.833,14
	s0.667,9.334,7.667,14s10.001,5.166,14.167,5.333s15.333-1.834,18.833-10.667s3.5-17.5-1.833-40.833L39.88,79.841l-5-28.667
	c0,0,0-30.667,14.667-32.667c0,0,13.501,7-3.333,31.167c0,0-37,37-41.834,48.5c0,0-7.167,11.166-3.167,29.5
	c0,0,4.167,20.5,22.833,30c0,0,10.5,5.166,24.667,2c0,0,21.001-6.167,23.334-26.667c0,0,5.333-28.999-23-33.166
	c0,0-20.833-1.834-27,21.166c0,0-1.648,21.246,14.176,26h2.491l0.5-2.166c0,0-7.167-4.334-9.334-9.667
	c0,0-2.832-14.334,11.334-19.667c0,0,11.332-2.666,17.666,5.667c0,0,13.5,15.833-4.5,30.833c0,0-3.666,6.5-24.167,3
	c0,0-29.5-10.667-17.833-44c0,0,11.019-19,23.843-27.5c0,0,24.158-19.167,23.491-44.833c0,0,2.666-28-12.501-38.667
	c0,0-7.833-1.167-16.333,25.167c0,0-3.5,16.667-0.5,28.5l7.667,44.5l9.166,52.334l5.001,28c0,0,4.166,18.5-10.167,25.333
	c0,0-3.834,1.334-8.667,0.667S26.214,199.507,26.214,199.507z"/>
</svg>
